<?xml version="1.0" encoding="utf-8"?>
<!-- Generator: Adobe Illustrator 24.0.1, SVG Export Plug-In . SVG Version: 6.00 Build 0)  -->
<svg version="1.1" id="Camada_1" xmlns="http://www.w3.org/2000/svg" xmlns:xlink="http://www.w3.org/1999/xlink" x="0px" y="0px"
	 viewBox="0 0 1080 1080" style="enable-background:new 0 0 1080 1080;" xml:space="preserve">
<style type="text/css">
	.st0{fill:#009FE3;}
	.st1{fill:url(#SVGID_1_);}
	.st2{fill:url(#SVGID_2_);}
	.st3{fill:none;stroke:#1D1D1B;stroke-miterlimit:10;}
	.st4{fill:#FFDA00;}
	.st5{fill:url(#SVGID_3_);}
	.st6{fill:none;stroke:#FFDA00;stroke-width:5;stroke-miterlimit:10;}
	.st7{fill:none;stroke:#F7CD00;stroke-width:5;stroke-miterlimit:10;}
	.st8{fill:#FFF764;}
</style>
<polygon class="st0" points="630.1,561.3 617.3,548.9 599.8,545.3 612.3,532.5 615.8,515.1 628.6,527.5 646.1,531.1 633.7,543.8 "/>
<g>
	
		<linearGradient id="SVGID_1_" gradientUnits="userSpaceOnUse" x1="376.316" y1="454.2952" x2="376.316" y2="76.5083" gradientTransform="matrix(1 0 0 -1 0 1080)">
		<stop  offset="0" style="stop-color:#009FE3"/>
		<stop  offset="0.4506" style="stop-color:#009CE3"/>
		<stop  offset="0.7279" style="stop-color:#0094E3"/>
		<stop  offset="0.958" style="stop-color:#0086E3"/>
		<stop  offset="1" style="stop-color:#0082E3"/>
	</linearGradient>
	<path class="st1" d="M541.2,765.5c0,16.4-4.5,31.8-12.4,45c-7,11.7-16.7,21.6-28.2,28.9c-5,3.2-9.3,7.4-12.9,12.1
		c-20.3,26.5-34.7,57.8-41.1,91.8c-0.9,4.7-1,9.5-0.8,14.3c0,0.6,0,1.3,0,2c0,5.5-1,10.8-2.9,15.6c-6.3,16.5-22.2,28.1-40.9,28.1
		c-5.5,0-10.7-1-15.6-2.9c-12.2-4.6-21.8-14.6-26-27.1c-0.4-2.1-1-4.1-1.5-6.1c-3.8-13.2-10.7-25.1-19.7-34.9
		c-8.7-9.4-20.7-15.3-33.5-16.3c-2.3-0.2-4.5-0.3-6.8-0.3c-9.7,0-19.1,1.6-27.8,4.5c-1,0.4-2,0.7-3,1.1c0,0-0.1,0-0.1,0
		c-4.1,1.3-8.4,1.9-12.9,1.9c-9,0-17.4-2.7-24.3-7.4c-11.7-7.8-19.4-21.2-19.4-36.4c0-60.7,24.7-115.6,64.5-155.2
		c1.9-1.9,3.9-3.5,6.1-5c6.4-4.6,12.3-9.8,17.8-15.5c19.9-20.7,33-48,35.9-78.2c8.3,16.2,18.6,31.1,30.5,44.6
		c9.3,10.5,19.5,20.1,30.6,28.6c37,28.5,83.3,45.5,133.6,45.5c2.8,0,5.5-0.1,8.2-0.2C540.3,751.1,541.2,758.2,541.2,765.5z"/>
	
		<linearGradient id="SVGID_2_" gradientUnits="userSpaceOnUse" x1="684.376" y1="454.2669" x2="684.376" y2="76.48" gradientTransform="matrix(1 0 0 -1 0 1080)">
		<stop  offset="0" style="stop-color:#009FE3"/>
		<stop  offset="0.4506" style="stop-color:#009CE3"/>
		<stop  offset="0.7279" style="stop-color:#0094E3"/>
		<stop  offset="0.958" style="stop-color:#0086E3"/>
		<stop  offset="1" style="stop-color:#0082E3"/>
	</linearGradient>
	<path class="st2" d="M519.5,765.6c0,16.4,4.5,31.8,12.4,45c7,11.7,16.7,21.6,28.2,28.9c5,3.2,9.3,7.4,12.9,12.1
		c20.3,26.5,34.7,57.8,41.1,91.8c0.9,4.7,1,9.5,0.8,14.3c0,0.6,0,1.3,0,2c0,5.5,1,10.8,2.9,15.6c6.3,16.5,22.2,28.1,40.9,28.1
		c5.5,0,10.7-1,15.6-2.9c12.2-4.6,21.8-14.6,26-27.1c0.4-2.1,1-4.1,1.5-6.1c3.8-13.2,10.7-25.1,19.7-34.9
		c8.7-9.4,20.7-15.3,33.5-16.3c2.3-0.2,4.5-0.3,6.8-0.3c9.7,0,19.1,1.6,27.8,4.5c1,0.4,2,0.7,3,1.1c0,0,0.1,0,0.1,0
		c4.1,1.3,8.4,1.9,12.9,1.9c9,0,17.4-2.7,24.3-7.4c11.7-7.8,19.4-21.2,19.4-36.4c0-60.7-24.7-115.6-64.5-155.2
		c-1.9-1.9-3.9-3.5-6.1-5c-6.4-4.6-12.3-9.8-17.8-15.5c-19.9-20.7-33-48-35.9-78.2c-8.3,16.2-18.6,31.1-30.5,44.6
		c-9.3,10.5-19.5,20.1-30.6,28.6c-37,28.5-83.3,45.5-133.6,45.5c-2.8,0-5.5-0.1-8.2-0.2C520.4,751.1,519.5,758.2,519.5,765.6z"/>
	<circle class="st3" cx="530.3" cy="525.5" r="87.6"/>
	<path class="st4" d="M840,525.5c0-5-1.5-7.7-1.5-7.7l-28.1-44.7l8-44.4c2.7-24.6-5.9-28.5-5.9-28.5s-33.4-23.8-39.3-28.5
		c-5.1-4.1-5.6-6.5-5.6-6.5s-6.8-20.4-9.8-42c-3-21.6-20.1-25.7-20.1-25.7s-33.5-7.8-39.8-8.8c-3.9-0.6-7.5-3.3-9.7-5.2
		c-1.2-1-2.2-2.1-3.1-3.4c-5.3-6.9-28.7-37.7-32.8-41.8c-4.7-4.7-11.8-2.9-11.8-2.9s-25.7,2.9-40.2,6.2s-18.2,1.1-18.2,1.1
		s-35-20.7-41-26.7c-6-6-10.9-6.4-10.9-6.4h-1.4h-1.4c0,0-4.8,0.4-10.9,6.4c-6,6-41,26.7-41,26.7s-3.8,2.2-18.2-1.1
		c-14.4-3.3-40.2-6.2-40.2-6.2s-7.1-1.8-11.8,2.9c-4.1,4.1-27.6,34.9-32.8,41.8c-0.9,1.2-1.9,2.4-3.1,3.4c-2.2,1.9-5.8,4.6-9.7,5.2
		c-6.2,1-39.8,8.8-39.8,8.8s-17.2,4.1-20.1,25.7c-3,21.6-9.8,42-9.8,42s-0.5,2.4-5.6,6.5c-5.9,4.8-39.3,28.5-39.3,28.5
		s-8.6,4-5.9,28.5l8,44.4l-28.1,44.7c0,0-1.5,2.7-1.5,7.7s1.5,7.7,1.5,7.7l28.1,44.7l-8,44.4c-2.7,24.6,5.9,28.5,5.9,28.5
		s33.4,23.8,39.3,28.5c5.1,4.1,5.6,6.5,5.6,6.5s6.8,20.4,9.8,42c3,21.6,20.1,25.7,20.1,25.7s33.5,7.8,39.8,8.8
		c3.9,0.6,7.5,3.3,9.7,5.2c1.2,1,2.2,2.1,3.1,3.4c5.3,6.9,28.7,37.7,32.8,41.8c4.7,4.7,11.8,2.9,11.8,2.9s25.7-2.9,40.2-6.2
		c14.4-3.3,18.2-1.1,18.2-1.1s35,20.7,41,26.7c6,6,10.9,6.4,10.9,6.4h1.4h1.4c0,0,4.8-0.4,10.9-6.4c6-6,41-26.7,41-26.7
		s3.8-2.2,18.2,1.1s40.2,6.2,40.2,6.2s7.1,1.8,11.8-2.9c4.1-4.1,27.6-34.9,32.8-41.8c0.9-1.2,1.9-2.4,3.1-3.4
		c2.2-1.9,5.8-4.6,9.7-5.2c6.2-1,39.8-8.8,39.8-8.8s17.2-4.1,20.1-25.7c3-21.6,9.8-42,9.8-42s0.5-2.4,5.6-6.5
		c5.9-4.8,39.3-28.5,39.3-28.5s8.6-4,5.9-28.5l-8-44.4l28.1-44.7C838.5,533.2,840,530.4,840,525.5z"/>
	
		<linearGradient id="SVGID_3_" gradientUnits="userSpaceOnUse" x1="528.8452" y1="859.96" x2="528.8452" y2="249.1219" gradientTransform="matrix(1 0 0 -1 0 1080)">
		<stop  offset="0" style="stop-color:#FFF764"/>
		<stop  offset="1" style="stop-color:#FFEB39"/>
	</linearGradient>
	<path class="st5" d="M829.7,525.5c0-4.8-1.4-7.4-1.4-7.4l-27.2-43.2l7.7-42.9c2.6-23.7-5.7-27.6-5.7-27.6s-32.3-23-38-27.6
		c-5-4-5.4-6.3-5.4-6.3s-6.6-19.7-9.4-40.6c-2.9-20.9-19.4-24.9-19.4-24.9s-32.4-7.5-38.4-8.5c-3.8-0.6-7.3-3.2-9.3-5
		c-1.1-1-2.1-2.1-3-3.3c-5.1-6.7-27.7-36.4-31.7-40.4c-4.5-4.5-11.4-2.8-11.4-2.8s-24.9,2.8-38.8,6c-13.9,3.2-17.6,1.1-17.6,1.1
		s-33.8-20-39.7-25.8c-5.8-5.8-10.5-6.2-10.5-6.2h-1.4h-1.4c0,0-4.7,0.3-10.5,6.2c-5.8,5.8-39.7,25.8-39.7,25.8s-3.6,2.1-17.6-1.1
		c-13.9-3.2-38.8-6-38.8-6s-6.9-1.7-11.4,2.8c-4,4-26.6,33.7-31.7,40.4c-0.9,1.2-1.9,2.3-3,3.3c-2.1,1.8-5.6,4.4-9.3,5
		c-6,1-38.4,8.5-38.4,8.5s-16.6,4-19.4,24.9c-2.9,20.9-9.4,40.6-9.4,40.6s-0.5,2.3-5.4,6.3c-5.7,4.6-38,27.6-38,27.6
		s-8.3,3.9-5.7,27.6l7.7,42.9L229.5,518c0,0-1.4,2.6-1.4,7.4c0,4.8,1.4,7.4,1.4,7.4l27.2,43.2l-7.7,42.9
		c-2.6,23.7,5.7,27.6,5.7,27.6s32.3,23,38,27.6c5,4,5.4,6.3,5.4,6.3s6.6,19.7,9.4,40.6s19.4,24.9,19.4,24.9s32.4,7.5,38.4,8.5
		c3.8,0.6,7.3,3.2,9.3,5c1.1,1,2.1,2.1,3,3.3c5.1,6.7,27.7,36.4,31.7,40.4c4.5,4.5,11.4,2.8,11.4,2.8s24.9-2.8,38.8-6
		c13.9-3.2,17.6-1.1,17.6-1.1s33.8,20,39.7,25.8c5.8,5.8,10.5,6.2,10.5,6.2h1.4h1.4c0,0,4.7-0.3,10.5-6.2
		c5.8-5.8,39.7-25.8,39.7-25.8s3.6-2.1,17.6,1.1c13.9,3.2,38.8,6,38.8,6s6.9,1.7,11.4-2.8c4-4,26.6-33.7,31.7-40.4
		c0.9-1.2,1.9-2.3,3-3.3c2.1-1.8,5.6-4.4,9.3-5c6-1,38.4-8.5,38.4-8.5s16.6-4,19.4-24.9c2.9-20.9,9.4-40.6,9.4-40.6s0.5-2.3,5.4-6.3
		c5.7-4.6,38-27.6,38-27.6s8.3-3.9,5.7-27.6l-7.7-42.9l27.2-43.2C828.2,532.9,829.7,530.2,829.7,525.5z"/>
	<path class="st6" d="M661.7,525.5c0,72.5-58.8,131.4-131.4,131.4S399,598,399,525.5s58.8-131.4,131.4-131.4
		C602.9,394.1,661.7,452.9,661.7,525.5z"/>
	<path class="st7" d="M530.3,306.5c-120.9,0-218.9,98-218.9,218.9c0,3.7,0.1,7.4,0.3,11.1c0.1,1.6,0.2,3.2,0.3,4.8
		c2,28.2,9.4,54.9,21.1,79.1c0.9,1.8,1.7,3.5,2.6,5.3c8.3,16.2,18.6,31.1,30.5,44.6c9.3,10.5,19.5,20.1,30.6,28.6
		c37,28.5,83.3,45.5,133.6,45.5c2.8,0,5.5-0.1,8.2-0.2c19.4-0.7,38.1-3.9,55.9-9.4c89.6-27.4,154.8-110.8,154.8-209.4
		C749.3,404.6,651.3,306.5,530.3,306.5z"/>
	<path class="st8" d="M276.7,264.4L276.7,264.4c-7.3,7.3-19.3,7.3-26.7,0l-41.3-41.3c-7.3-7.3-7.3-19.3,0-26.7l0,0
		c7.3-7.3,19.3-7.3,26.7,0l41.3,41.3C284.1,245.1,284.1,257.1,276.7,264.4z"/>
	<path class="st8" d="M111,247.7L111,247.7c5.7-9.9,18.5-13.4,28.5-7.6l78.9,45.6c9.9,5.7,13.4,18.5,7.6,28.5l0,0
		c-5.7,9.9-18.5,13.4-28.5,7.6l-78.9-45.6C108.7,270.5,105.2,257.6,111,247.7z"/>
	<path class="st8" d="M213.2,380.4L213.2,380.4c-1.5,8.9-10.1,15-19,13.4l-70.8-12.1c-8.9-1.5-15-10.1-13.4-19l0,0
		c1.5-8.9,10.1-15,19-13.4l70.8,12.1C208.6,363,214.7,371.5,213.2,380.4z"/>
	<polygon class="st0" points="929.5,658.6 895.6,625.7 849.3,616.3 882.2,582.4 891.6,536.1 925.5,569 971.8,578.4 938.9,612.3 	"/>
	<polygon class="st0" points="357.3,209.5 337.2,190.1 309.9,184.5 329.3,164.4 334.9,137.1 354.9,156.5 382.3,162.1 362.9,182.2 	
		"/>
	<path class="st8" d="M782.4,264.4L782.4,264.4c7.3,7.3,19.3,7.3,26.7,0l41.3-41.3c7.3-7.3,7.3-19.3,0-26.7l0,0
		c-7.3-7.3-19.3-7.3-26.7,0l-41.3,41.3C775.1,245.1,775.1,257.1,782.4,264.4z"/>
	<path class="st8" d="M948.2,247.7L948.2,247.7c-5.7-9.9-18.5-13.4-28.5-7.6l-78.9,45.6c-9.9,5.7-13.4,18.5-7.6,28.5l0,0
		c5.7,9.9,18.5,13.4,28.5,7.6l78.9-45.6C950.5,270.5,954,257.6,948.2,247.7z"/>
	<path class="st8" d="M846,380.4L846,380.4c1.5,8.9,10.1,15,19,13.4l70.8-12.1c8.9-1.5,15-10.1,13.4-19l0,0
		c-1.5-8.9-10.1-15-19-13.4l-70.8,12.1C850.6,363,844.5,371.5,846,380.4z"/>
	<polygon class="st0" points="650.5,148.9 670.6,129.5 697.9,123.9 678.5,103.9 672.9,76.5 652.8,95.9 625.5,101.5 644.9,121.6 	"/>
</g>
</svg>
