<?xml version="1.0" encoding="utf-8"?>
<!-- Generator: Adobe Illustrator 24.0.1, SVG Export Plug-In . SVG Version: 6.00 Build 0)  -->
<svg version="1.1" id="Camada_2" xmlns="http://www.w3.org/2000/svg" xmlns:xlink="http://www.w3.org/1999/xlink" x="0px" y="0px"
	 viewBox="0 0 1000 1000" enable-background="new 0 0 1000 1000" xml:space="preserve">
<g>
	<g>
		<path d="M141.212,507.603h-4.923c-13.101,0-26.001-3.81-36.706-11.362c-13.94-9.835-27.88-27.976-27.88-61.203V262.79h8.98
			c3.212,0,6.331,1.085,8.849,3.079l19.78,15.659c2.48,1.963,5.551,3.032,8.714,3.032h0c2.914,0,5.759-0.894,8.126-2.592
			c4.513-3.237,13.957-9.022,29.941-14.541c8.876-3.065,18.208-4.637,27.599-4.637l68.661,0c0,0,6.875,45.449-47.359,65.309
			s-56.907,25.971-59.962,42.775v136.729H141.212z"/>
		<path d="M367.565,262.79c-67.603,0-122.407,54.803-122.407,122.406s54.803,122.406,122.407,122.406S489.972,452.8,489.972,385.197
			S435.168,262.79,367.565,262.79z M367.565,438.093c-29.214,0-52.896-23.682-52.896-52.896c0-29.214,23.682-52.896,52.896-52.896
			c29.214,0,52.896,23.682,52.896,52.896C420.462,414.411,396.779,438.093,367.565,438.093z"/>
		<path d="M805.892,262.79c-67.603,0-122.407,54.803-122.407,122.406s54.803,122.406,122.407,122.406S928.298,452.8,928.298,385.197
			S873.495,262.79,805.892,262.79z M805.892,438.093c-29.214,0-52.896-23.682-52.896-52.896c0-29.214,23.682-52.896,52.896-52.896
			c29.214,0,52.896,23.682,52.896,52.896C858.788,414.411,835.106,438.093,805.892,438.093z"/>
		<path d="M584.243,262.79L584.243,262.79c-8.057,0-16.015,1.774-23.285,5.246c-17.279,8.252-46.225,26.315-46.225,54.716v82.495
			c0,0,9.93,102.355,119.16,102.355h61.872c0,0,0-75.939-84.787-75.939c0,0-26.735-9.23-26.735-46.467V262.79z"/>
	</g>
	<line fill="none" stroke="#000000" stroke-width="8" stroke-miterlimit="10" x1="71.702" y1="551.186" x2="928.298" y2="551.186"/>
	<text transform="matrix(1 0 0 1 69.8799 709.3261)" font-family="'DealerplateCalifornia-Regular'" font-size="128.4993px">GROUP</text>
</g>
</svg>
